#format: frame checksums
#version: 2
#hash: MD5
#tb 0: 1/24
#media_type 0: video
#codec_id 0: rawvideo
#dimensions 0: 176x144
#sar 0: 0/1
#stream#, dts,        pts, duration,     size, hash
0,          0,          0,        1,    38016, b3a3121c796a60c88988fef5240a07fe
0,          1,          1,        1,    38016, f25147764829cf837e00b8fd6383e2c4
0,          2,          2,        1,    38016, 1b1552291a89c97d5deea145ab0ac0cd
0,          3,          3,        1,    38016, 0b2e75bbbe8f4248eb1519b6542efc96
0,          4,          4,        1,    38016, 99e8fc68547e119253ee3b8d79efa774
0,          5,          5,        1,    38016, 3aaf9210819238da7f704339bd8f262c
0,          6,          6,        1,    38016, de80b11f4c325e6d467d4abe5ad0db51
0,          7,          7,        1,    38016, 93d2fba68721768018b35ccac27b6bb1
0,          8,          8,        1,    38016, 07d7d4f8ad4151a013b652bec21ea9b8
0,          9,          9,        1,    38016, aaa95e4d39aa31cf68fdb8da268827e5
0,         10,         10,        1,    38016, 3607fcda0733e0b0fd10a8f7fbe6e39e
0,         11,         11,        1,    38016, 6d8cc24ea3b9827ef0147c8b7cc6938d
0,         12,         12,        1,    38016, 977a6b65d41b1b70dd4df9f526045675
0,         13,         13,        1,    38016, 9258b0e5fc2217c3aebbd96bb06c937a
0,         14,         14,        1,    38016, 887378a3aad18346a3827cd0aadc6873
0,         15,         15,        1,    38016, c2a3ff302d74eefd0855f2c862766aca
0,         16,         16,        1,    38016, 1a7d835f5a977e1fd8cc37bdd8d029ca
0,         17,         17,        1,    38016, 232be1f7e334001c3abbed550cc60c34
0,         18,         18,        1,    38016, e8cb3470b9a3ffbc7014793514dc89cf
0,         19,         19,        1,    38016, 54b20adca41910f003790a975ff7b50d
0,         20,         20,        1,    38016, 2c5fce4dcdd538f1d9377fa071f3d615
0,         21,         21,        1,    38016, d559840da8cef1f0b1379a592f708f0a
0,         22,         22,        1,    38016, ffab5f1060938a62cf8ef9df30ec8a33
0,         23,         23,        1,    38016, b7d93c8eda8cce4d387f2ea78c415704
0,         24,         24,        1,    38016, 7840aa27333e6350d114b256ab4304f1
0,         25,         25,        1,    38016, dc1f3b125177d0ad7f53dd058bba03e7
0,         26,         26,        1,    38016, 37134fcaad963a22f4df04c0765af455
0,         27,         27,        1,    38016, 4dc062fb76943a75e7b2428e5babbb3c
0,         28,         28,        1,    38016, dfda91bc05efc72073a2b6b62f294327
0,         29,         29,        1,    38016, 7ffc690c63a1c54e35978336dc5828a3
0,         30,         30,        1,    38016, 9ae31bacbc097c2ccf1500ff89882e46
0,         31,         31,        1,    38016, 1450c24713dcad41aeba1c44007bf12f
0,         32,         32,        1,    38016, f125bb52b8a1b11e076de55cca1069ee
0,         33,         33,        1,    38016, 555e1f2a6d293a0bdc9f92e9c3b3118d
0,         34,         34,        1,    38016, ec9a8d577a07a4f0d5deae63b3cea6dd
0,         35,         35,        1,    38016, a54f74e0ee329db4a78851bb7e54b2ba
0,         36,         36,        1,    38016, 99fcfe7ed9028bc443a790f9cf8eb812
0,         37,         37,        1,    38016, b9b994ffbe0150945b752a2120b4a475
0,         38,         38,        1,    38016, f00d70d8a28cecaaec1eb84592e3f6c3
0,         39,         39,        1,    38016, 3bc8ed07fc92c4d339164891e6624306
0,         40,         40,        1,    38016, d755777560d745d6bdfa01b9e9cbbcc0
0,         41,         41,        1,    38016, bcefb5ef8fae173e413406b4a60e2255
0,         42,         42,        1,    38016, fb47098c334b82764e30819066b13096
0,         43,         43,        1,    38016, 9e31f68fc96045bba43cf1253eedc419
0,         44,         44,        1,    38016, 53522d46d2ba91ab23693db7d41ecda7
0,         45,         45,        1,    38016, d66a074ebe6123590622e5cb308d75e5
0,         46,         46,        1,    38016, 6574fce175632a22fcc05b47157318e4
0,         47,         47,        1,    38016, 31f7fb05d060c1dea46044787772baaf
0,         48,         48,        1,    38016, cec733062ae526ae71b39ae0dc402482
